<svg xmlns="http://www.w3.org/2000/svg" version="1.1"
     width="440" height="252.12">
    <g>
        <svg viewBox="0 0 358.8430292198618 247.2" height="247.2" width="440" xmlns="http://www.w3.org/2000/svg"
             version="1.1" x="0"
             y="2.460000000000008" viewbox="0 0 440 252.12">
            <g>
                <svg viewBox="0 0 397.4975999999999 273.82838377444295" height="247.2" width="358.8430292198618">
                    <g>
                        <rect width="397.4975999999999" height="5.530039104297299" x="0" y="136.99434047628156"
                              fill="#35185a" opacity="1" stroke-width="0" stroke="transparent" fill-opacity="1"
                              class="rect-o-0" data-fill-palette-color="primary" rx="1%" id="o-0"
                              data-palette-color="#35185a"></rect>
                    </g>
                    <g transform="matrix(1,0,0,1,0.9887999999999693,157.00092173842518)">
                        <svg viewBox="0 0 395.52 116.82746203601778" height="116.82746203601778" width="395.52">
                            <g>
                                <svg viewBox="0 0 395.52 116.82746203601778" height="116.82746203601778" width="395.52">
                                    <g>
                                        <svg viewBox="0 0 395.52 61.32153271762624" height="61.32153271762624"
                                             width="395.52">
                                            <g transform="matrix(1,0,0,1,0,0)">
                                                <svg width="395.52"
                                                     viewBox="5.349999904632568 -38.599998474121094 252.42999267578125 39.44999694824219"
                                                     height="61.32153271762624" data-palette-color="#35185a">
                                                    <g class="undefined-text-0" data-fill-palette-color="primary"
                                                       id="text-0">
                                                        <path d="M18.6-37.9Q31-37.9 31-26.6L31-26.6Q31-21.1 27.9-18.23 24.8-15.35 18.6-15.35L18.6-15.35 10.2-15.35 10.2 0 5.35 0 5.35-37.9 18.6-37.9ZM26.05-26.6Q26.05-30.3 24.2-31.98 22.35-33.65 18.6-33.65L18.6-33.65 10.2-33.65 10.2-19.65 18.6-19.65Q26-19.65 26.05-26.6L26.05-26.6ZM38.35 0L38.35-37.9 43.2-37.9 43.2 0 38.35 0ZM69.9 0.85Q63.8 0.85 59.65-1.6 55.5-4.05 53.42-8.5 51.34-12.95 51.34-18.9L51.34-18.9Q51.34-24.5 53.4-28.95 55.45-33.4 59.62-36 63.8-38.6 69.9-38.6L69.9-38.6Q72.55-38.6 74.62-38.18 76.7-37.75 79.09-36.75L79.09-36.75 79.09-32.3Q74.84-34.35 70-34.35L70-34.35Q65.8-34.35 62.7-32.38 59.59-30.4 57.95-26.88 56.3-23.35 56.34-18.9L56.34-18.9Q56.34-14.3 57.95-10.8 59.55-7.3 62.59-5.35 65.65-3.4 69.9-3.4L69.9-3.4Q72.55-3.4 75.12-4.15 77.7-4.9 80.55-6.3L80.55-6.3 82.09-2.2Q79.2-0.7 76 0.08 72.8 0.85 69.9 0.85L69.9 0.85ZM113.54-37.9L113.54-33.55 102.14-33.55 102.14 0 97.24 0 97.24-33.55 85.84-33.55 85.84-37.9 113.54-37.9Z"
                                                              fill="#35185a" data-fill-palette-color="primary"></path>
                                                        <path d="M138.74-19.25Q145.54-17.05 145.54-10.25L145.54-10.25Q145.54-5.05 142.42-2.53 139.29 0 131.99 0L131.99 0 118.89 0 118.89-37.9 131.99-37.9Q138.64-37.9 141.34-35.4 144.04-32.9 144.04-27.75L144.04-27.75Q144.04-24.7 142.77-22.58 141.49-20.45 138.74-19.25L138.74-19.25ZM123.74-33.8L123.74-21.05 131.99-21.05Q139.04-21.05 139.09-27.4L139.09-27.4Q139.09-30.9 137.54-32.35 135.99-33.8 131.99-33.8L131.99-33.8 123.74-33.8ZM140.59-10.55Q140.59-13.9 138.42-15.43 136.24-16.95 131.99-16.95L131.99-16.95 123.74-16.95 123.74-4.1 131.99-4.1Q136.69-4.1 138.64-5.65 140.59-7.2 140.59-10.55L140.59-10.55ZM179.29 0L175.19-11.05 159.39-11.05 155.34 0 150.34 0 164.59-38.35 169.99-38.35 184.29 0 179.29 0ZM161.04-15.4L173.54-15.4 167.29-32.3 161.04-15.4ZM214.89-37.9L219.74-37.9 219.74 0 214.44 0 195.79-29.75 195.79 0 190.94 0 190.94-37.9 196.19-37.9 214.89-8.15 214.89-37.9ZM251.53 0L237.88-17.1 235.28-14.35 235.28 0 230.43 0 230.43-37.9 235.28-37.9 235.28-20.95 251.38-37.9 257.53-37.9 241.18-20.6 257.78 0 251.53 0Z"
                                                              fill="#bb84e8" data-fill-palette-color="accent"></path>
                                                    </g>
                                                </svg>
                                            </g>
                                        </svg>
                                    </g>
                                    <g transform="matrix(1,0,0,1,0,75.79807487547258)">
                                        <svg viewBox="0 0 395.52 41.029387160545205" height="41.029387160545205"
                                             width="395.52">
                                            <g transform="matrix(1,0,0,1,0,0)">
                                                <svg width="395.52"
                                                     viewBox="0.9500000476837158 -38.0099983215332 484.08709716796875 48.68000030517578"
                                                     height="41.029387160545205" data-palette-color="#35185a">
                                                    <g class="undefined-text-1" data-fill-palette-color="secondary"
                                                       id="text-1">
                                                        <path d="M4.22-35.55L13.04-16.21 21.9-35.55 25.1-35.55 14.4-13.38 14.4 0 11.62 0 11.62-13.38 0.95-35.55 4.22-35.55ZM28.71-11.43L28.71-14.55Q28.71-20.26 31.3-23.58 33.88-26.9 38.35-26.9L38.35-26.9Q42.84-26.9 45.42-23.63 48-20.36 48.02-14.62L48.02-14.62 48.02-11.82Q48.02-6.01 45.42-2.76 42.82 0.49 38.4 0.49 33.98 0.49 31.39-2.69 28.81-5.86 28.71-11.43L28.71-11.43ZM31.44-14.75L31.44-11.82Q31.44-7.25 33.29-4.64 35.13-2.03 38.4-2.03L38.4-2.03Q41.75-2.03 43.52-4.54 45.29-7.06 45.31-11.74L45.31-11.74 45.31-14.55Q45.31-19.12 43.45-21.74 41.6-24.37 38.35-24.37L38.35-24.37Q35.2-24.37 33.35-21.8 31.49-19.24 31.44-14.75L31.44-14.75ZM68.48 0L68.43-3.15Q66.18 0.49 61.47 0.49L61.47 0.49Q57.88 0.49 56.05-2 54.22-4.49 54.19-9.33L54.19-9.33 54.19-26.42 56.88-26.42 56.88-9.4Q56.88-5.81 58.15-3.96 59.42-2.1 61.81-2.1L61.81-2.1Q66.94-2.1 68.38-7.08L68.38-7.08 68.38-26.42 71.11-26.42 71.11 0 68.48 0ZM88.74-26.59L88.69-23.88Q87.71-24.05 86.98-24.05L86.98-24.05Q84.73-24.05 83.21-22.51 81.68-20.97 81.05-18.24L81.05-18.24 81.05 0 78.34 0 78.34-26.42 81-26.42 81.05-22.46Q82.98-26.9 87.1-26.9L87.1-26.9Q88.18-26.9 88.74-26.59L88.74-26.59Z"
                                                              fill="#35185a" data-fill-palette-color="primary"></path>
                                                        <path d="M96.857-26.42L99.437-26.42 99.517-22.46Q101.977-26.9 106.597-26.9L106.597-26.9Q111.697-26.9 113.187-22.05L113.187-22.05Q114.427-24.46 116.397-25.68 118.357-26.9 120.677-26.9L120.677-26.9Q127.807-26.9 127.977-17.72L127.977-17.72 127.977 0 125.267 0 125.267-17.55Q125.217-20.97 123.997-22.64 122.777-24.32 119.997-24.32L119.997-24.32Q117.487-24.27 115.747-22.36 114.017-20.46 113.767-17.58L113.767-17.58 113.767 0 111.037 0 111.037-17.48Q111.037-20.95 109.757-22.63 108.477-24.32 105.767-24.32L105.767-24.32Q103.547-24.32 101.917-22.78 100.297-21.24 99.567-18.38L99.567-18.38 99.567 0 96.857 0 96.857-26.42ZM134.037-11.43L134.037-14.55Q134.037-20.26 136.617-23.58 139.207-26.9 143.677-26.9L143.677-26.9Q148.167-26.9 150.747-23.63 153.317-20.36 153.347-14.62L153.347-14.62 153.347-11.82Q153.347-6.01 150.747-2.76 148.147 0.49 143.727 0.49 139.307 0.49 136.717-2.69 134.127-5.86 134.037-11.43L134.037-11.43ZM136.767-14.75L136.767-11.82Q136.767-7.25 138.607-4.64 140.457-2.03 143.727-2.03L143.727-2.03Q147.067-2.03 148.837-4.54 150.607-7.06 150.637-11.74L150.637-11.74 150.637-14.55Q150.637-19.12 148.777-21.74 146.927-24.37 143.677-24.37L143.677-24.37Q140.527-24.37 138.667-21.8 136.817-19.24 136.767-14.75L136.767-14.75ZM159.587-26.42L162.177-26.42 162.257-22.22Q163.427-24.37 165.247-25.63 167.067-26.9 169.377-26.9L169.377-26.9Q176.287-26.9 176.457-17.7L176.457-17.7 176.457 0 173.777 0 173.777-17.41Q173.747-20.95 172.527-22.63 171.307-24.32 168.697-24.32L168.697-24.32Q166.577-24.32 164.877-22.72 163.177-21.12 162.297-18.33L162.297-18.33 162.297 0 159.587 0 159.587-26.42ZM192.377 0.49L192.377 0.49Q187.717 0.49 185.077-2.56 182.437-5.62 182.397-11.25L182.397-11.25 182.397-14.48Q182.397-20.29 184.927-23.6 187.467-26.9 191.917-26.9L191.917-26.9Q196.207-26.9 198.467-24.1 200.727-21.29 200.777-15.5L200.777-15.5 200.777-12.96 185.077-12.96 185.077-11.47Q185.077-6.93 187.017-4.47 188.957-2 192.497-2L192.497-2Q196.407-2 198.827-4.86L198.827-4.86 200.237-3.05Q197.647 0.49 192.377 0.49ZM191.917-24.37L191.917-24.37Q188.717-24.37 186.997-22.11 185.277-19.85 185.097-15.5L185.097-15.5 198.067-15.5 198.067-16.21Q197.867-24.37 191.917-24.37ZM206.997-26.42L213.567-4.47 219.867-26.42 222.767-26.42 213.467 4.22 212.957 5.69Q211.077 10.67 207.197 10.67L207.197 10.67Q206.267 10.67 205.237 10.33L205.237 10.33 205.217 7.84Q205.777 8.01 206.457 8.01L206.457 8.01Q208.217 8.01 209.347 6.96 210.467 5.91 211.197 3.56L211.197 3.56 212.317-0.17 204.017-26.42 206.997-26.42Z"
                                                              fill="#bb84e8" data-fill-palette-color="accent"></path>
                                                        <path d="M234.005-26.42L234.005 0 231.275 0 231.275-26.42 234.005-26.42ZM230.885-34.03L230.885-34.03Q230.885-34.86 231.345-35.45 231.805-36.04 232.665-36.04 233.515-36.04 233.995-35.45 234.465-34.86 234.465-34.03 234.465-33.2 233.995-32.63 233.515-32.06 232.665-32.06 231.805-32.06 231.345-32.63 230.885-33.2 230.885-34.03ZM254.705-6.49L254.705-6.49Q254.705-8.2 253.295-9.48 251.875-10.77 248.495-12.29 245.115-13.82 243.765-14.83 242.425-15.84 241.795-17.04 241.155-18.24 241.155-19.87L241.155-19.87Q241.155-22.92 243.355-24.91 245.555-26.9 249.045-26.9L249.045-26.9Q252.805-26.9 255.045-24.78 257.295-22.66 257.295-19.17L257.295-19.17 254.585-19.17Q254.585-21.41 253.045-22.89 251.505-24.37 249.045-24.37L249.045-24.37Q246.645-24.37 245.245-23.14 243.845-21.92 243.845-19.97L243.845-19.97Q243.845-18.38 244.915-17.38 245.995-16.38 249.555-14.67L249.555-14.67Q253.245-13.06 254.635-12.01 256.025-10.96 256.735-9.68 257.445-8.4 257.445-6.64L257.445-6.64Q257.445-3.37 255.175-1.44 252.895 0.49 249.185 0.49L249.185 0.49Q245.255 0.49 242.825-1.66 240.395-3.81 240.395-7.2L240.395-7.2 243.135-7.2Q243.255-4.74 244.785-3.38 246.305-2.03 249.185-2.03L249.185-2.03Q251.675-2.03 253.195-3.25 254.705-4.47 254.705-6.49Z"
                                                              fill="#35185a" data-fill-palette-color="primary"></path>
                                                        <path d="M278.862-6.49L278.862-6.49Q278.862-8.2 277.452-9.48 276.032-10.77 272.652-12.29 269.272-13.82 267.922-14.83 266.582-15.84 265.952-17.04 265.312-18.24 265.312-19.87L265.312-19.87Q265.312-22.92 267.512-24.91 269.712-26.9 273.202-26.9L273.202-26.9Q276.962-26.9 279.202-24.78 281.452-22.66 281.452-19.17L281.452-19.17 278.742-19.17Q278.742-21.41 277.202-22.89 275.662-24.37 273.202-24.37L273.202-24.37Q270.802-24.37 269.402-23.14 268.002-21.92 268.002-19.97L268.002-19.97Q268.002-18.38 269.072-17.38 270.152-16.38 273.712-14.67L273.712-14.67Q277.402-13.06 278.792-12.01 280.182-10.96 280.892-9.68 281.602-8.4 281.602-6.64L281.602-6.64Q281.602-3.37 279.332-1.44 277.052 0.49 273.342 0.49L273.342 0.49Q269.412 0.49 266.982-1.66 264.552-3.81 264.552-7.2L264.552-7.2 267.292-7.2Q267.412-4.74 268.942-3.38 270.462-2.03 273.342-2.03L273.342-2.03Q275.832-2.03 277.352-3.25 278.862-4.47 278.862-6.49ZM304.812 0L301.932 0Q301.562-1.27 301.442-3.66L301.442-3.66Q300.222-1.68 298.302-0.6 296.392 0.49 294.142 0.49L294.142 0.49Q290.722 0.49 288.822-1.44 286.922-3.37 286.922-6.93L286.922-6.93Q286.922-10.82 289.562-13.09 292.212-15.36 296.882-15.38L296.882-15.38 301.422-15.38 301.422-19.07Q301.422-21.9 300.012-23.13 298.612-24.37 295.902-24.37L295.902-24.37Q293.392-24.37 291.772-22.9 290.162-21.44 290.162-19.12L290.162-19.12 287.452-19.14Q287.452-22.39 289.892-24.65 292.342-26.9 296.022-26.9L296.022-26.9Q300.002-26.9 302.052-24.9 304.102-22.9 304.102-19.07L304.102-19.07 304.102-6.1Q304.102-2.22 304.812-0.29L304.812-0.29 304.812 0ZM294.482-2.12L294.482-2.12Q296.882-2.12 298.722-3.37 300.562-4.61 301.422-6.69L301.422-6.69 301.422-13.11 297.122-13.11Q293.412-13.06 291.532-11.46 289.652-9.86 289.652-7.15L289.652-7.15Q289.652-2.12 294.482-2.12ZM316.012 0L313.282 0 313.282-23.97 309.642-23.97 309.642-26.42 313.282-26.42 313.282-29.88Q313.332-33.81 315.102-35.91 316.872-38.01 319.992-38.01L319.992-38.01Q321.412-38.01 322.612-37.6L322.612-37.6 322.412-35.11Q321.342-35.38 320.212-35.38L320.212-35.38Q318.242-35.38 317.132-33.9 316.012-32.42 316.012-29.66L316.012-29.66 316.012-26.42 321.192-26.42 321.192-23.97 316.012-23.97 316.012 0ZM335.232 0.49L335.232 0.49Q330.562 0.49 327.932-2.56 325.292-5.62 325.242-11.25L325.242-11.25 325.242-14.48Q325.242-20.29 327.782-23.6 330.322-26.9 334.762-26.9L334.762-26.9Q339.062-26.9 341.322-24.1 343.582-21.29 343.622-15.5L343.622-15.5 343.622-12.96 327.932-12.96 327.932-11.47Q327.932-6.93 329.872-4.47 331.812-2 335.352-2L335.352-2Q339.252-2 341.672-4.86L341.672-4.86 343.092-3.05Q340.502 0.49 335.232 0.49ZM334.762-24.37L334.762-24.37Q331.562-24.37 329.842-22.11 328.122-19.85 327.952-15.5L327.952-15.5 340.912-15.5 340.912-16.21Q340.722-24.37 334.762-24.37Z"
                                                              fill="#bb84e8" data-fill-palette-color="accent"></path>
                                                        <path d="M352.69-26.42L357.4-6.01 357.62-4.54 357.91-6.13 363.31-26.42 365.58-26.42 370.93-6.3 371.32-4.22 371.63-6.08 376.2-26.42 378.98-26.42 372.51 0 370.24 0 364.5-21 364.38-21.63 364.28-20.97 358.64 0 356.35 0 349.93-26.42 352.69-26.42ZM387.48-26.42L387.48 0 384.74 0 384.74-26.42 387.48-26.42ZM384.35-34.03L384.35-34.03Q384.35-34.86 384.81-35.45 385.28-36.04 386.13-36.04 386.99-36.04 387.46-35.45 387.94-34.86 387.94-34.03 387.94-33.2 387.46-32.63 386.99-32.06 386.13-32.06 385.28-32.06 384.81-32.63 384.35-33.2 384.35-34.03ZM396.34-33.15L399.05-33.15 399.05-26.42 403.56-26.42 403.56-23.97 399.05-23.97 399.05-6.42Q399.05-4.25 399.69-3.19 400.34-2.12 401.85-2.12L401.85-2.12Q402.51-2.12 403.81-2.37L403.81-2.37 403.88 0.07Q402.95 0.49 401.22 0.49L401.22 0.49Q396.46 0.49 396.34-6.05L396.34-6.05 396.34-23.97 392.26-23.97 392.26-26.42 396.34-26.42 396.34-33.15ZM412.18-37.5L412.18-22.27Q413.35-24.39 415.14-25.65 416.94-26.9 419.26-26.9L419.26-26.9Q426.17-26.9 426.34-17.7L426.34-17.7 426.34 0 423.65 0 423.65-17.41Q423.63-20.95 422.41-22.63 421.19-24.32 418.57-24.32L418.57-24.32Q416.45-24.32 414.75-22.72 413.06-21.12 412.18-18.33L412.18-18.33 412.18 0 409.47 0 409.47-37.5 412.18-37.5Z"
                                                              fill="#35185a" data-fill-palette-color="primary"></path>
                                                        <path d="M448.757 0L448.707-3.15Q446.467 0.49 441.757 0.49L441.757 0.49Q438.167 0.49 436.337-2 434.497-4.49 434.477-9.33L434.477-9.33 434.477-26.42 437.167-26.42 437.167-9.4Q437.167-5.81 438.437-3.96 439.697-2.1 442.097-2.1L442.097-2.1Q447.217-2.1 448.657-7.08L448.657-7.08 448.657-26.42 451.397-26.42 451.397 0 448.757 0ZM471.827-6.49L471.827-6.49Q471.827-8.2 470.417-9.48 468.997-10.77 465.617-12.29 462.237-13.82 460.887-14.83 459.547-15.84 458.917-17.04 458.277-18.24 458.277-19.87L458.277-19.87Q458.277-22.92 460.477-24.91 462.677-26.9 466.167-26.9L466.167-26.9Q469.927-26.9 472.167-24.78 474.417-22.66 474.417-19.17L474.417-19.17 471.707-19.17Q471.707-21.41 470.167-22.89 468.627-24.37 466.167-24.37L466.167-24.37Q463.767-24.37 462.367-23.14 460.967-21.92 460.967-19.97L460.967-19.97Q460.967-18.38 462.037-17.38 463.117-16.38 466.677-14.67L466.677-14.67Q470.367-13.06 471.757-12.01 473.147-10.96 473.857-9.68 474.567-8.4 474.567-6.64L474.567-6.64Q474.567-3.37 472.287-1.44 470.017 0.49 466.307 0.49L466.307 0.49Q462.377 0.49 459.947-1.66 457.517-3.81 457.517-7.2L457.517-7.2 460.257-7.2Q460.377-4.74 461.907-3.38 463.427-2.03 466.307-2.03L466.307-2.03Q468.797-2.03 470.317-3.25 471.827-4.47 471.827-6.49ZM480.857-1.78L480.857-1.78Q480.857-2.66 481.407-3.26 481.957-3.86 482.937-3.86 483.907-3.86 484.477-3.26 485.037-2.66 485.037-1.78L485.037-1.78Q485.037-0.93 484.477-0.37 483.907 0.2 482.937 0.2 481.957 0.2 481.407-0.37 480.857-0.93 480.857-1.78Z"
                                                              fill="#bb84e8" data-fill-palette-color="accent"></path>
                                                    </g>
                                                </svg>
                                            </g>
                                        </svg>
                                    </g>
                                </svg>
                            </g>
                        </svg>
                    </g>
                    <g transform="matrix(1,0,0,1,76.53311999999997,0)">
                        <svg viewBox="0 0 244.43135999999998 122.51779831843523" height="122.51779831843523"
                             width="244.43135999999998">
                            <g>
                                <svg xmlns="http://www.w3.org/2000/svg" xml:space="preserve"
                                     style="shape-rendering:geometricPrecision;text-rendering:geometricPrecision;image-rendering:optimizeQuality;"
                                     viewBox="0.0000020265579223632812 0.000002731004542511073 14.727499008178711 7.38195276260376"
                                     x="0" y="0" fill-rule="evenodd" clip-rule="evenodd" width="244.43135999999998"
                                     height="122.51779831843523" class="icon-icon-0" data-fill-palette-color="accent"
                                     id="icon-0"><g fill="#bb84e8" data-fill-palette-color="accent"><path class="" d="M1.757 3.091c-0.313 0.444-0.296 1.331-0.417 1.95-0.153 0.784-0.711 1.203-1.34 1.534 0.188-0.771 0.348-1.542 0.412-2.313 0.078-0.953-0.06-0.891 0.767-1.575 1.159-0.961 3.04-1.741 5.848-2.29 2.456-0.406 5.049-0.453 7.701-0.351-0.89 1.809-3.733 1.961-7.203 1.581-1.811 0.02-3.495-0.488-5.768 1.464z m8.33 2.781c-3.895 2.038-7.803-2.284-9.165 0.688 2.104-1.831 5.079 3.183 9.165-0.688z m2.489-2.547c-4.49 2.72-9.502-0.792-10.907 1.859 3.412-1.235 7.765 2.753 10.907-1.859z m0.834-1.478c-3.944 1.761-10.043-1.402-11.565 2.239 3.106-1.808 8.446 1.438 11.565-2.239z" fill="#bb84e8" data-fill-palette-color="accent"></path></g></svg>
                            </g>
                        </svg>
                    </g>
                    <g></g>
                </svg>
            </g>
        </svg>
    </g>
</svg>